<?xml version="1.0" encoding="UTF-8"?>
<svg
    width="100px"
    height="30px"
    viewBox="0 0 282 80"
    version="1.1"
    xmlns="http://www.w3.org/2000/svg"
    xmlns:xlink="http://www.w3.org/1999/xlink"
>
    <g stroke="none" stroke-width="1">
        <g>
            <g>
                <path
                    d="M104.70716,22.5397531 L110.305185,22.5397531 L125.969383,58.9012346 L118.573827,58.9012346 L115.184198,50.5812346 L99.417284,50.5812346 L96.1303704,58.9012346 L88.8888889,58.9012346 L104.70716,22.5397531 Z M112.924444,45.0345679 L107.32642,30.2434568 L101.625679,45.0345679 L112.924444,45.0345679 Z M148.533171,55.2034568 L148.430455,55.2034568 C147.540245,56.7099664 146.341903,57.8055933 144.835393,58.4903704 C143.328884,59.1751475 141.702562,59.5175309 139.956381,59.5175309 C138.039005,59.5175309 136.335648,59.183707 134.846257,58.5160494 C133.356867,57.8483917 132.081489,56.9325161 131.020085,55.7683951 C129.95868,54.604274 129.154079,53.2347404 128.606257,51.6597531 C128.058436,50.0847658 127.784529,48.3899679 127.784529,46.5753086 C127.784529,44.7606494 128.075555,43.0658515 128.657615,41.4908642 C129.239676,39.9158769 130.052837,38.5463433 131.097122,37.3822222 C132.141407,36.2181012 133.399666,35.3022256 134.871936,34.6345679 C136.344207,33.9669102 137.953409,33.6330864 139.699591,33.6330864 C140.863712,33.6330864 141.890862,33.7529206 142.781072,33.9925926 C143.671282,34.2322646 144.458764,34.5404096 145.143541,34.917037 C145.828318,35.2936644 146.41037,35.6959649 146.889714,36.1239506 C147.369058,36.5519363 147.762799,36.971356 148.070949,37.3822222 L148.225023,37.3822222 L148.225023,20.0745679 L154.387986,20.0745679 L154.387986,58.9012346 L148.533171,58.9012346 L148.533171,55.2034568 Z M133.947492,46.5753086 C133.947492,47.5339966 134.110124,48.4584318 134.435393,49.348642 C134.760662,50.2388522 135.239999,51.026334 135.873418,51.7111111 C136.506837,52.3958882 137.26864,52.9437016 138.15885,53.3545679 C139.04906,53.7654342 140.059091,53.9708642 141.188973,53.9708642 C142.318856,53.9708642 143.328887,53.7654342 144.219097,53.3545679 C145.109307,52.9437016 145.87111,52.3958882 146.504529,51.7111111 C147.137948,51.026334 147.617285,50.2388522 147.942554,49.348642 C148.267823,48.4584318 148.430455,47.5339966 148.430455,46.5753086 C148.430455,45.6166207 148.267823,44.6921855 147.942554,43.8019753 C147.617285,42.9117651 147.137948,42.1242833 146.504529,41.4395062 C145.87111,40.7547291 145.109307,40.2069156 144.219097,39.7960494 C143.328887,39.3851831 142.318856,39.1797531 141.188973,39.1797531 C140.059091,39.1797531 139.04906,39.3851831 138.15885,39.7960494 C137.26864,40.2069156 136.506837,40.7547291 135.873418,41.4395062 C135.239999,42.1242833 134.760662,42.9117651 134.435393,43.8019753 C134.110124,44.6921855 133.947492,45.6166207 133.947492,46.5753086 Z M161.955231,22.5397531 L173.048564,22.5397531 C174.555074,22.5397531 176.027322,22.6938256 177.465354,23.0019753 C178.903386,23.310125 180.187324,23.8151405 181.317206,24.517037 C182.447088,25.2189336 183.362964,26.1348092 184.06486,27.2646914 C184.766757,28.3945736 185.1177,29.7983455 185.1177,31.4760494 C185.1177,33.5988584 184.544208,35.3535733 183.397206,36.7402469 C182.250204,38.1269205 180.70092,39.1112728 178.749305,39.6933333 L178.749305,39.7960494 C179.913426,39.8987659 181.000493,40.1983514 182.010539,40.6948148 C183.020586,41.1912782 183.893663,41.8332471 184.629799,42.6207407 C185.365934,43.4082344 185.939426,44.32411 186.350293,45.3683951 C186.761159,46.4126801 186.966589,47.5339858 186.966589,48.7323457 C186.966589,50.7524381 186.547169,52.4129976 185.708317,53.7140741 C184.869465,55.0151505 183.773838,56.0508603 182.421404,56.8212346 C181.068969,57.5916088 179.545363,58.1308627 177.850539,58.4390123 C176.155716,58.747162 174.469478,58.9012346 172.791774,58.9012346 L161.955231,58.9012346 L161.955231,22.5397531 Z M166.269305,37.9471605 L172.226836,37.9471605 C173.254001,37.9471605 174.255473,37.8786838 175.23128,37.7417284 C176.207088,37.604773 177.088725,37.3223067 177.876218,36.894321 C178.663712,36.4663353 179.297121,35.8671643 179.776465,35.0967901 C180.255809,34.3264159 180.495478,33.3078253 180.495478,32.0409877 C180.495478,30.9111055 180.272928,29.9952298 179.827823,29.2933333 C179.382718,28.5914368 178.792107,28.0350638 178.055972,27.6241975 C177.319836,27.2133313 176.480997,26.930865 175.539428,26.7767901 C174.59786,26.6227153 173.647746,26.545679 172.689058,26.545679 L166.269305,26.545679 L166.269305,37.9471605 Z M166.269305,54.8953086 L173.562144,54.8953086 C174.623549,54.8953086 175.676378,54.784034 176.720663,54.5614815 C177.764948,54.3389289 178.706502,53.9794264 179.545354,53.482963 C180.384206,52.9864996 181.060413,52.3359711 181.573996,51.531358 C182.087579,50.7267449 182.344367,49.7423927 182.344367,48.5782716 C182.344367,47.311434 182.096139,46.2500454 181.599675,45.3940741 C181.103212,44.5381027 180.452683,43.8533359 179.64807,43.3397531 C178.843457,42.8261703 177.919022,42.4666677 176.874737,42.2612346 C175.830452,42.0558014 174.760504,41.9530864 173.66486,41.9530864 L166.269305,41.9530864 L166.269305,54.8953086 Z M193.506673,20.0745679 L197.512599,20.0745679 L197.512599,58.9012346 L193.506673,58.9012346 L193.506673,20.0745679 Z M203.64182,46.8834568 C203.64182,45.0003198 203.967084,43.2884028 204.617622,41.7476543 C205.26816,40.2069059 206.158357,38.8801702 207.288239,37.7674074 C208.418122,36.6546446 209.770536,35.7901265 211.345523,35.1738272 C212.920511,34.5575278 214.632428,34.2493827 216.481326,34.2493827 C218.330224,34.2493827 220.042141,34.5575278 221.617128,35.1738272 C223.192116,35.7901265 224.54453,36.6546446 225.674412,37.7674074 C226.804294,38.8801702 227.694491,40.2069059 228.34503,41.7476543 C228.995568,43.2884028 229.320832,45.0003198 229.320832,46.8834568 C229.320832,48.7665938 228.995568,50.4785108 228.34503,52.0192593 C227.694491,53.5600077 226.804294,54.8867434 225.674412,55.9995062 C224.54453,57.1122689 223.192116,57.976787 221.617128,58.5930864 C220.042141,59.2093858 218.330224,59.5175309 216.481326,59.5175309 C214.632428,59.5175309 212.920511,59.2093858 211.345523,58.5930864 C209.770536,57.976787 208.418122,57.1122689 207.288239,55.9995062 C206.158357,54.8867434 205.26816,53.5600077 204.617622,52.0192593 C203.967084,50.4785108 203.64182,48.7665938 203.64182,46.8834568 Z M207.955894,46.8834568 C207.955894,48.1502944 208.152764,49.3229576 208.546511,50.4014815 C208.940258,51.4800054 209.51375,52.4215598 210.267005,53.2261728 C211.02026,54.0307859 211.919016,54.6641952 212.963301,55.1264198 C214.007586,55.5886443 215.180249,55.8197531 216.481326,55.8197531 C217.782402,55.8197531 218.955065,55.5886443 219.99935,55.1264198 C221.043636,54.6641952 221.942392,54.0307859 222.695647,53.2261728 C223.448902,52.4215598 224.022394,51.4800054 224.416141,50.4014815 C224.809887,49.3229576 225.006758,48.1502944 225.006758,46.8834568 C225.006758,45.6166192 224.809887,44.443956 224.416141,43.3654321 C224.022394,42.2869082 223.448902,41.3453538 222.695647,40.5407407 C221.942392,39.7361277 221.043636,39.1027184 219.99935,38.6404938 C218.955065,38.1782693 217.782402,37.9471605 216.481326,37.9471605 C215.180249,37.9471605 214.007586,38.1782693 212.963301,38.6404938 C211.919016,39.1027184 211.02026,39.7361277 210.267005,40.5407407 C209.51375,41.3453538 208.940258,42.2869082 208.546511,43.3654321 C208.152764,44.443956 207.955894,45.6166192 207.955894,46.8834568 Z M252.192768,40.8745679 C251.336797,39.8474023 250.412362,39.1027184 249.419435,38.6404938 C248.426508,38.1782693 247.330881,37.9471605 246.132521,37.9471605 C244.797206,37.9471605 243.615983,38.1782693 242.588818,38.6404938 C241.561652,39.1027184 240.714253,39.7446872 240.046596,40.5664198 C239.378938,41.3881523 238.873922,42.3382662 238.531534,43.4167901 C238.189145,44.495314 238.017954,45.650858 238.017954,46.8834568 C238.017954,48.1160555 238.214824,49.2715995 238.608571,50.3501235 C239.002318,51.4286474 239.550131,52.3787613 240.252028,53.2004938 C240.953924,54.0222263 241.801323,54.6641952 242.79425,55.1264198 C243.787177,55.5886443 244.899923,55.8197531 246.132521,55.8197531 C248.768913,55.8197531 250.806095,54.8268412 252.244126,52.8409877 L255.222892,55.665679 C254.058771,57.0009943 252.689237,57.976787 251.11425,58.5930864 C249.539263,59.2093858 247.878703,59.5175309 246.132521,59.5175309 C244.283623,59.5175309 242.588825,59.2093858 241.048077,58.5930864 C239.507329,57.976787 238.197712,57.1037094 237.119188,55.9738272 C236.040664,54.843945 235.201825,53.5086497 234.602645,51.9679012 C234.003465,50.4271528 233.703879,48.7323549 233.703879,46.8834568 C233.703879,45.0687975 234.003465,43.3911188 234.602645,41.8503704 C235.201825,40.3096219 236.049224,38.9743266 237.144867,37.8444444 C238.24051,36.7145623 239.550127,35.832925 241.073756,35.1995062 C242.597385,34.5660874 244.283623,34.2493827 246.132521,34.2493827 C247.912942,34.2493827 249.59918,34.5575278 251.191287,35.1738272 C252.783394,35.7901265 254.178606,36.7488001 255.376966,38.0498765 L252.192768,40.8745679 Z M259.400507,20.0745679 L263.406433,20.0745679 L263.406433,45.4454321 L274.345692,34.865679 L280.046433,34.865679 L268.43952,45.8049383 L281.227668,58.9012346 L275.321495,58.9012346 L263.406433,46.2671605 L263.406433,58.9012346 L259.400507,58.9012346 L259.400507,20.0745679 Z"
                    fill="white"
                    fill-rule="nonzero"
                />
                <g>
                    <path
                        d="M21.4051667,1.73584669 L1.73548036,21.4072527 C0.624265718,22.5185645 2.47207424e-15,24.0257684 2.66453526e-15,25.5973319 L-2.66453526e-15,53.4189083 C-2.47206324e-15,54.9905616 0.624336832,56.497844 1.73566352,57.6091707 L21.4051981,77.2787053 C22.5165248,78.390032 24.0238072,79.0143688 25.5954605,79.0143688 L53.4168852,79.0143688 C54.9885384,79.0143688 56.4958209,78.390032 57.6071476,77.2787053 L77.2766822,57.6091707 C78.3880088,56.497844 79.0123457,54.9905616 79.0123457,53.4189083 L79.0123457,25.5973319 C79.0123457,24.0257684 78.38808,22.5185645 77.2768653,21.4072527 L57.607179,1.73584669 C56.4958374,0.62440795 54.9884765,9.98904793e-15 53.4167334,8.8817842e-15 L25.5956123,8.8817842e-16 C24.0238692,1.17690293e-15 22.5165083,0.62440795 21.4051667,1.73584669 Z" id="octagon"
                        fill="rgb(102, 178, 255)"
                    />
                    <path
                        d="M38.5646135,68.1481481 C51.6542509,68.1481481 54.7601611,56.1415335 54.7601611,56.1415335 L62.2728536,34.5557692 C62.2728536,34.5557692 62.9512989,32.3150324 62.8268135,32.2901353 C55.8307353,30.9830389 54.343135,35.9126598 54.343135,35.9126598 C54.343135,35.9126598 51.6542509,42.8962894 51.2372249,42.8962894 C50.8201989,42.8962894 50.7704047,42.3796751 50.7704047,42.3796751 L50.7704047,17.2896474 C50.7704047,17.2896474 50.9011144,14.0530276 47.5773548,14.0530276 C44.2535952,14.0530276 44.4216505,17.2958717 44.4216505,17.2958717 L44.4278748,35.8317443 C44.4278748,35.8317443 44.4714447,36.5786566 43.8490178,36.5786566 C43.2950578,36.5786566 43.3261792,35.8566414 43.3261792,35.8566414 L43.3261792,13.5239648 C43.3261792,13.5239648 43.5315801,9.87654321 40.1704749,9.87654321 C36.8093697,9.87654321 36.9898735,13.5488618 36.9898735,13.5488618 L36.9587522,35.5827735 C36.9587522,35.5827735 37.002322,36.2612188 36.4483621,36.2612188 C35.9317478,36.2612188 35.9504206,35.5889978 35.9504206,35.5889978 L35.9504206,17.1153679 C35.9504206,17.1153679 36.1371487,13.3559095 32.7138008,13.3559095 C29.3526956,13.3559095 29.5331994,17.1838348 29.5331994,17.1838348 L29.5020781,36.6906934 C29.5020781,36.6906934 29.5643208,37.2571019 29.0352579,37.2571019 C28.4750737,37.2571019 28.4875223,36.6906934 28.4875223,36.6906934 L28.4626252,24.8957039 C28.4626252,24.8957039 28.4937465,21.6341871 25.6679285,21.6341871 C22.6616066,21.6341871 22.717625,24.8957039 22.717625,24.8957039 L22.717625,50.3529635 C22.7362978,50.3467392 21.9582642,68.1481481 38.5646135,68.1481481 Z"
                        fill="rgb(16, 20, 24)"
                    ></path>
                </g>
            </g>
        </g>
    </g>
</svg>