<?xml version="1.0" encoding="UTF-8"?>
<!DOCTYPE svg PUBLIC "-//W3C//DTD SVG 1.1//EN" "http://www.w3.org/Graphics/SVG/1.1/DTD/svg11.dtd">
<svg xmlns="http://www.w3.org/2000/svg" version="1.1" width="236px" height="234px" style="shape-rendering:geometricPrecision; text-rendering:geometricPrecision; image-rendering:optimizeQuality; fill-rule:evenodd; clip-rule:evenodd" xmlns:xlink="http://www.w3.org/1999/xlink">
<g><path style="opacity:1" fill="#2b3540" d="M 105.5,5.5 C 151.204,3.10241 186.704,20.7691 212,58.5C 232.667,96.5 232.667,134.5 212,172.5C 180.979,217.245 138.813,233.411 85.5,221C 40.9339,205.371 15.1006,174.205 8,127.5C 5.11425,81.7731 22.6143,46.2731 60.5,21C 74.6279,12.9031 89.6279,7.73644 105.5,5.5 Z"/></g>
<g><path style="opacity:1" fill="#fafafa" d="M 50.5,75.5 C 57.0112,74.1819 63.6778,74.1819 70.5,75.5C 76.3333,85.1667 82.1667,94.8333 88,104.5C 93.8333,94.6667 99.6667,84.8333 105.5,75C 111.833,74.3333 118.167,74.3333 124.5,75C 115,89.8333 105.5,104.667 96,119.5C 95.5001,130.828 95.3335,142.162 95.5,153.5C 90.1667,153.5 84.8333,153.5 79.5,153.5C 79.6665,142.162 79.4999,130.828 79,119.5C 69.637,104.658 60.137,89.9917 50.5,75.5 Z"/></g>
<g><path style="opacity:1" fill="#f9fafa" d="M 177.5,113.5 C 178.32,119.797 178.653,126.131 178.5,132.5C 174.25,146.808 164.583,154.142 149.5,154.5C 135.396,154.208 125.896,147.541 121,134.5C 116.8,117.076 122.633,104.576 138.5,97C 152.37,92.9245 164.204,96.0911 174,106.5C 175.705,108.577 176.872,110.91 177.5,113.5 Z"/></g>
<g><path style="opacity:1" fill="#2d3642" d="M 146.5,107.5 C 157.596,107.429 163.262,112.929 163.5,124C 163.688,131.143 161.021,136.809 155.5,141C 142.969,143.492 136.636,138.158 136.5,125C 135.868,116.749 139.202,110.916 146.5,107.5 Z"/></g>
<g><path style="opacity:1" fill="#bcbfc3" d="M 177.5,113.5 C 179.039,116.865 179.706,120.531 179.5,124.5C 179.497,127.355 179.164,130.022 178.5,132.5C 178.653,126.131 178.32,119.797 177.5,113.5 Z"/></g>
</svg>
